<?xml version="1.0" encoding="UTF-8"?>
<!DOCTYPE svg PUBLIC "-//W3C//DTD SVG 1.1//EN" "http://www.w3.org/Graphics/SVG/1.1/DTD/svg11.dtd">
<!-- Creator: CorelDRAW X8 -->
<svg xmlns="http://www.w3.org/2000/svg" xml:space="preserve" width="261mm" height="208.5mm" version="1.1" style="shape-rendering:geometricPrecision; text-rendering:geometricPrecision; image-rendering:optimizeQuality; fill-rule:evenodd; clip-rule:evenodd"
viewBox="0 0 26100 20850"
 xmlns:xlink="http://www.w3.org/1999/xlink"
 aria-hidden="true"
 data-prefix="fas"
 data-icon="cogs"
 role="img">
 <defs>
  <style type="text/css">
   <![CDATA[
    .str0 {stroke:gray;stroke-width:500}
    .fil0 {fill:none}
   ]]>
  </style>
 </defs>
 <g id="Слой_x0020_1">
  <metadata id="CorelCorpID_0Corel-Layer"/>
  <path class="fil0 str0" d="M20285 8460c-118,209 -370,295 -594,213 -464,-173 -889,-421 -1263,-732 -181,-149 -228,-413 -110,-617l323 -563c-272,-314 -484,-680 -626,-1077l-649 -1c-236,0 -440,-169 -480,-405 -78,-472 -82,-967 0,-1459 40,-236 244,-409 480,-409l649 0c142,-397 354,-763 626,-1078l-323 -562c-118,-205 -75,-468 110,-618 374,-310 803,-558 1263,-731 224,-83 476,4 594,212l322 563c413,-75 834,-75 1247,0l322 -563c118,-208 370,-295 594,-212 465,173 889,421 1263,731 181,150 228,413 110,618l-322 562c271,315 483,681 625,1078l649 0c236,0 440,169 480,405 78,472 82,968 0,1459 -40,236 -244,409 -480,409l-649 0c-142,398 -354,764 -625,1078l322 563c118,204 75,468 -110,617 -374,311 -802,559 -1263,732 -224,82 -476,-4 -594,-213l-322 -562c-409,75 -834,75 -1247,0l-322 562zm-91 -2875c1514,1164 3241,-562 2077,-2077 -1514,-1168 -3241,563 -2077,2077zm-4535 6053l1326 661c397,228 570,712 413,1145 -350,952 -1039,1825 -1676,2588 -291,350 -794,436 -1192,208l-1144 -660c-630,538 -1361,967 -2160,1246l0 1322c0,456 -326,849 -774,928 -968,165 -1983,173 -2986,0 -452,-79 -786,-468 -786,-928l0 -1322c-799,-283 -1530,-708 -2160,-1246l-1144 656c-394,228 -901,142 -1192,-208 -637,-763 -1310,-1636 -1660,-2584 -157,-429 16,-913 413,-1145l1310 -661c-154,-822 -154,-1667 0,-2493l-1310 -665c-397,-228 -574,-712 -413,-1141 350,-951 1023,-1825 1660,-2588 291,-350 794,-436 1192,-208l1144 661c630,-539 1361,-968 2160,-1247l0 -1326c0,-452 322,-845 770,-924 968,-165 1987,-173 2990,-4 452,79 786,468 786,928l0 1322c799,283 1530,708 2160,1247l1144 -661c394,-228 901,-142 1192,208 637,763 1306,1637 1656,2588 157,429 4,913 -393,1145l-1326 661c154,826 154,1671 0,2497zm-4625 830c2328,-3028 -1129,-6486 -4158,-4157 -2328,3028 1129,6486 4158,4157zm9573 7186l-322 563c-118,208 -370,295 -594,212 -464,-173 -889,-421 -1263,-731 -181,-150 -228,-413 -110,-618l323 -562c-272,-315 -484,-681 -626,-1078l-649 0c-236,0 -440,-169 -480,-405 -78,-472 -82,-968 0,-1459 40,-236 244,-409 480,-409l649 0c142,-398 354,-764 626,-1078l-323 -563c-118,-204 -75,-468 110,-617 374,-311 803,-559 1263,-732 224,-82 476,4 594,213l322 562c413,-75 834,-75 1247,0l323 -562c118,-209 369,-295 593,-213 465,173 889,421 1263,732 181,149 228,413 110,617l-322 563c271,314 483,680 625,1078l649 0c236,0 440,169 480,405 78,472 82,967 0,1459 -40,236 -244,409 -480,409l-649 0c-142,397 -354,763 -625,1078l322 562c118,205 75,468 -110,618 -374,310 -802,558 -1263,731 -224,83 -476,-4 -594,-212l-322 -563c-409,75 -834,75 -1247,0l0 0zm-413 -2316c1514,1164 3241,-563 2077,-2077 -1514,-1164 -3241,562 -2077,2077z"/>
 </g>
</svg>
