<?xml version="1.0" encoding="UTF-8"?>
<!DOCTYPE svg PUBLIC "-//W3C//DTD SVG 1.1//EN" "http://www.w3.org/Graphics/SVG/1.1/DTD/svg11.dtd">
<!-- Creator: CorelDRAW X8 -->
<svg xmlns="http://www.w3.org/2000/svg" xml:space="preserve" width="210mm" height="266.5mm" version="1.1" style="shape-rendering:geometricPrecision; text-rendering:geometricPrecision; image-rendering:optimizeQuality; fill-rule:evenodd; clip-rule:evenodd"
viewBox="0 0 21000 26650"
 xmlns:xlink="http://www.w3.org/1999/xlink"
 aria-hidden="true"
 data-prefix="fas"
 data-icon="hand-point-up"
 role="img">
 <defs>
  <style type="text/css">
   <![CDATA[
    .str0 {stroke:grey;stroke-width:500}
    .fil0 {fill:none}
   ]]>
  </style>
 </defs>
 <g id="Слой_x0020_1">
  <metadata id="CorelCorpID_0Corel-Layer"/>
  <g id="_665496528">
   <path class="fil0 str0" d="M7675 492c1185,0 2197,1035 2197,2246l0 5005c855,-819 2495,-920 3557,316 1144,-716 2657,-108 3124,824 2463,-449 3572,1101 3572,3640 0,138 -10,665 -10,802 9,3107 -1557,3855 -1921,6203 -90,585 -596,1016 -1188,1016l-8598 0 0 0c-921,-1 -1800,-532 -2198,-1427 -652,-1448 -2459,-4783 -3877,-5391 -912,-391 -1458,-1072 -1458,-2005 -1,-1716 1759,-2895 3354,-2212 419,180 836,417 1249,710l0 -7481c0,-1176 1030,-2246 2197,-2246l0 0zm18 20854l9625 0c664,0 1203,538 1203,1203l0 2406c0,665 -539,1203 -1203,1203l-9625 0c-665,0 -1203,-538 -1203,-1203l0 -2406c0,-665 538,-1203 1203,-1203zm8422 1403c-554,0 -1003,449 -1003,1003 0,554 449,1003 1003,1003 553,0 1002,-449 1002,-1003 0,-554 -449,-1003 -1002,-1003z"/>
  </g>
 </g>
</svg>
