<?xml version="1.0" encoding="UTF-8"?>
<!DOCTYPE svg PUBLIC "-//W3C//DTD SVG 1.1//EN" "http://www.w3.org/Graphics/SVG/1.1/DTD/svg11.dtd">
<!-- Creator: CorelDRAW X8 -->
<svg xmlns="http://www.w3.org/2000/svg" xml:space="preserve" width="203.249mm" height="181mm" version="1.1" style="shape-rendering:geometricPrecision; text-rendering:geometricPrecision; image-rendering:optimizeQuality; fill-rule:evenodd; clip-rule:evenodd"
viewBox="0 0 20325 18100"
 xmlns:xlink="http://www.w3.org/1999/xlink">
 <defs>
  <style type="text/css">
   <![CDATA[
    .str0 {stroke:grey;stroke-width:1000}
    .fil0 {fill:none}
   ]]>
  </style>
 </defs>
 <g id="Слой_x0020_1">
  <metadata id="CorelCorpID_0Corel-Layer"/>
  <ellipse class="fil0 str0" cx="10330" cy="4567" rx="3816" ry="3811"/>
  <path class="fil0 str0" d="M10288 11313c1140,0 2324,-577 3306,-629 983,-51 1765,424 2333,900 567,476 920,954 1155,1425 234,471 349,935 387,1550 39,615 1,1381 -18,1863 -20,482 -20,679 -286,795 -266,115 -798,149 -1986,149 -1188,0 -3032,-34 -4978,-36 -1946,-2 -3993,28 -5210,28 -1217,0 -1603,-30 -1798,-357 -196,-328 -201,-954 -184,-1557 17,-602 56,-1182 149,-1634 94,-452 242,-777 455,-1120 212,-343 489,-703 1056,-1128 567,-425 1425,-914 2402,-870 978,44 2076,621 3217,621z"/>
 </g>
</svg>
